<svg xmlns="http://www.w3.org/2000/svg" xmlns:xlink="http://www.w3.org/1999/xlink" width="1080" zoomAndPan="magnify" viewBox="0 0 810 810" height="1080" preserveAspectRatio="xMidYMid meet" version="1.0">
  <style>
    @media (prefers-color-scheme: dark) {
      .center { fill: #fff; stroke: #fff }
    }
  </style>
  <g fill="#c53152" fill-opacity="1">
    <g transform="translate(151.467158, 755.854473)">
      <g>
        <path d="M 159.4375 -566.4375 L 159.4375 0 L 76.25 0 L 76.25 -691.203125 L 184.1875 -691.203125 L 444.625 -120.8125 L 446.609375 -120.8125 L 446.609375 -691.203125 L 529.796875 -691.203125 L 529.796875 0 L 421.859375 0 L 161.40625 -566.4375 Z M 159.4375 -566.4375 " />
      </g>
    </g>
  </g>
  <g fill="#e6ac4a" fill-opacity="1">
    <g transform="translate(52.439443, 755.854473)">
      <g>
        <path d="M 159.4375 -566.4375 L 159.4375 0 L 76.25 0 L 76.25 -691.203125 L 184.1875 -691.203125 L 444.625 -120.8125 L 446.609375 -120.8125 L 446.609375 -691.203125 L 529.796875 -691.203125 L 529.796875 0 L 421.859375 0 L 161.40625 -566.4375 Z M 159.4375 -566.4375 " />
      </g>
    </g>
  </g>
  <g class="center" fill="#000" stoke="#000" fill-opacity="1">
    <g transform="translate(101.953303, 755.854473)">
      <g>
        <path d="M 159.4375 -566.4375 L 159.4375 0 L 76.25 0 L 76.25 -691.203125 L 184.1875 -691.203125 L 444.625 -120.8125 L 446.609375 -120.8125 L 446.609375 -691.203125 L 529.796875 -691.203125 L 529.796875 0 L 421.859375 0 L 161.40625 -566.4375 Z M 159.4375 -566.4375 " />
      </g>
    </g>
  </g>
</svg>