<svg xmlns="http://www.w3.org/2000/svg" xmlns:xlink="http://www.w3.org/1999/xlink" width="1080" zoomAndPan="magnify" viewBox="0 0 810 810" height="1080" preserveAspectRatio="xMidYMid meet" version="1.0">
  <style>
    @media (prefers-color-scheme: dark) {
      .outline { stroke: #c6c6c6 }
    }
  </style>
  <path class="outline" stroke-linecap="butt" transform="matrix(1.645832, 0, 0, 1.645832, -223.612689, -145.221623)" fill="none" stroke-linejoin="miter" d="M 372.935128 537.695304 C 479.926529 537.695304 567.788164 495.199218 567.788164 413.487114 C 567.788164 275.204544 326.477804 280.805815 326.477804 196.907791 C 326.477804 164.933076 358.450145 143.071504 402.040377 143.071504 C 453.555459 143.071504 482.660708 167.802541 482.660708 196.907791 C 482.660708 215.902271 471.455793 231.614312 450.275392 231.614312 C 426.090242 231.614312 409.965227 215.354011 415.020611 195.132472 L 408.189909 195.132472 C 406.003989 199.09371 403.815696 206.335015 403.815696 211.392773 C 403.815696 234.348491 428.959707 255.11829 460.796763 255.11829 C 494.957398 255.11829 520.782581 234.894378 520.782581 204.697355 C 520.782581 165.478963 473.095826 132.54776 389.743688 132.54776 C 321.420046 132.54776 264.987238 158.237658 264.987238 205.243242 C 264.987238 309.365178 497.826862 294.744911 497.826862 417.996612 C 497.826862 471.149353 451.915426 525.944501 365.147937 525.944501 C 285.073492 525.944501 229.732457 487.957914 229.732457 428.517983 C 229.732457 384.927751 260.47774 353.636581 304.203257 353.636581 C 346.153456 353.636581 377.990512 381.5124 377.990512 422.368452 C 377.990512 453.24902 360.090179 476.752998 330.439042 476.752998 C 304.751517 476.752998 289.58299 459.944437 289.58299 436.988719 C 289.58299 418.542499 301.333793 398.318587 327.023691 402.282198 L 327.707236 397.7727 C 326.477804 396.680927 317.594093 392.717315 308.57747 392.717315 C 281.247539 392.717315 264.441352 415.673034 264.441352 435.348686 C 264.441352 459.944437 290.128877 487.412027 329.893156 487.412027 C 376.898739 487.412027 411.059373 453.24902 411.059373 405.562265 C 411.059373 349.675343 362.959643 310.456951 300.787906 310.456951 C 238.067909 310.456951 189.970552 350.767117 189.970552 409.523503 C 189.970552 483.448416 260.47774 537.695304 372.935128 537.695304 Z M 372.935128 537.695304 " stroke="#0e0e0e" stroke-width="15.39164" stroke-opacity="1" stroke-miterlimit="4" />
  <g fill="#6ade41" fill-opacity="1">
    <g transform="translate(70.605459, 728.715031)">
      <g>
        <path d="M 319.640625 11.054688 C 495.582031 11.054688 640.203125 -58.953125 640.203125 -193.441406 C 640.203125 -420.96875 243.183594 -411.757812 243.183594 -549.929688 C 243.183594 -602.4375 295.691406 -638.359375 367.542969 -638.359375 C 452.289062 -638.359375 500.1875 -597.828125 500.1875 -549.929688 C 500.1875 -518.609375 481.765625 -492.816406 446.761719 -492.816406 C 407.152344 -492.816406 380.4375 -519.53125 388.726562 -552.695312 L 377.671875 -552.695312 C 373.988281 -546.246094 370.304688 -534.269531 370.304688 -525.980469 C 370.304688 -488.210938 411.757812 -454.128906 464.261719 -454.128906 C 520.453125 -454.128906 562.824219 -487.292969 562.824219 -537.035156 C 562.824219 -601.515625 484.527344 -655.863281 347.277344 -655.863281 C 234.894531 -655.863281 141.859375 -613.488281 141.859375 -536.113281 C 141.859375 -364.777344 525.058594 -388.726562 525.058594 -186.074219 C 525.058594 -98.5625 449.523438 -8.289062 306.746094 -8.289062 C 175.019531 -8.289062 83.824219 -70.929688 83.824219 -168.570312 C 83.824219 -240.421875 134.488281 -292.007812 206.339844 -292.007812 C 275.425781 -292.007812 327.929688 -245.949219 327.929688 -178.703125 C 327.929688 -128.039062 298.453125 -89.351562 249.632812 -89.351562 C 207.261719 -89.351562 182.390625 -116.988281 182.390625 -154.753906 C 182.390625 -185.152344 201.734375 -218.3125 244.105469 -211.867188 L 245.027344 -219.234375 C 243.183594 -221.078125 228.445312 -227.527344 213.707031 -227.527344 C 168.570312 -227.527344 140.9375 -189.757812 140.9375 -157.519531 C 140.9375 -116.988281 183.308594 -71.851562 248.710938 -71.851562 C 326.089844 -71.851562 382.28125 -128.039062 382.28125 -206.339844 C 382.28125 -298.453125 303.058594 -362.933594 200.8125 -362.933594 C 97.640625 -362.933594 18.421875 -296.613281 18.421875 -199.890625 C 18.421875 -78.296875 134.488281 11.054688 319.640625 11.054688 Z M 319.640625 11.054688 " />
      </g>
    </g>
  </g>
</svg>
