<svg xmlns="http://www.w3.org/2000/svg" xmlns:xlink="http://www.w3.org/1999/xlink" width="1080" zoomAndPan="magnify" viewBox="0 0 810 809.999993" height="1080" preserveAspectRatio="xMidYMid meet" version="1.0">
  <g fill="#29acbd" fill-opacity="0.4">
    <g transform="translate(115, 750)">
      <g>
        <path d="M 494.628906 -303.691406 C 505.902344 -320.230469 514.171875 -339.773438 519.433594 -363.078125 L 614.148438 -363.078125 C 615.652344 -368.339844 617.15625 -375.105469 617.90625 -381.117188 L 514.921875 -381.117188 C 517.929688 -397.65625 519.433594 -415.695312 519.433594 -435.242188 L 599.113281 -435.242188 C 599.113281 -435.992188 599.113281 -436.746094 599.113281 -437.496094 C 599.113281 -456.289062 597.613281 -473.578125 595.355469 -488.613281 L 566.039062 -488.613281 C 566.039062 -489.363281 566.039062 -489.363281 566.039062 -489.363281 L 532.964844 -489.363281 C 529.957031 -509.660156 525.445312 -526.949219 519.433594 -542.738281 L 578.066406 -542.738281 C 573.558594 -553.261719 568.292969 -563.03125 562.28125 -571.300781 C 555.515625 -581.824219 546.496094 -590.09375 535.972656 -596.859375 L 472.074219 -596.859375 C 450.277344 -611.894531 422.460938 -619.410156 387.132812 -619.410156 L 40.59375 -619.410156 C 34.578125 -619.410156 21.046875 -617.15625 19.542969 -596.859375 L 83.441406 -596.859375 C 83.441406 -595.355469 83.441406 -594.605469 83.441406 -593.101562 L 83.441406 -542.738281 L 24.054688 -542.738281 L 24.054688 -533.714844 C 24.054688 -510.414062 39.089844 -508.15625 45.855469 -508.15625 L 372.847656 -508.15625 C 392.394531 -508.15625 405.925781 -502.894531 413.441406 -491.621094 C 413.441406 -490.867188 414.195312 -490.117188 414.195312 -489.363281 L 447.269531 -489.363281 C 447.269531 -489.363281 447.269531 -489.363281 447.269531 -488.613281 L 476.585938 -488.613281 C 484.101562 -477.335938 487.863281 -460.046875 487.863281 -437.496094 C 487.863281 -436.746094 487.109375 -435.992188 487.109375 -435.242188 L 408.179688 -435.242188 C 408.179688 -411.9375 403.667969 -394.648438 396.152344 -383.375 C 395.402344 -382.621094 394.648438 -381.871094 393.898438 -381.117188 L 496.882812 -381.117188 C 488.613281 -372.097656 476.585938 -366.835938 458.542969 -366.835938 L 131.550781 -366.835938 C 128.542969 -366.835938 123.28125 -366.835938 118.019531 -363.078125 L 23.304688 -363.078125 C 18.792969 -359.320312 15.035156 -352.554688 15.035156 -341.277344 L 15.035156 -279.636719 L 86.445312 -279.636719 L 86.445312 -225.515625 L 34.578125 -225.515625 L 34.578125 -137.5625 L 90.207031 -137.5625 L 90.207031 -118.769531 L 34.578125 -118.769531 L 34.578125 -25.558594 C 34.578125 -22.550781 34.578125 -19.542969 35.332031 -17.289062 L 69.910156 -17.289062 C 72.917969 -1.503906 84.945312 0.75 90.957031 0.75 L 159.363281 0.75 C 165.375 0.75 176.652344 -1.503906 179.660156 -17.289062 L 145.082031 -17.289062 C 145.832031 -19.542969 145.832031 -22.550781 145.832031 -25.558594 L 145.832031 -118.769531 L 269.863281 -118.769531 L 269.863281 -137.5625 L 145.832031 -137.5625 L 145.832031 -225.515625 L 197.699219 -225.515625 L 197.699219 -255.582031 L 356.3125 -255.582031 L 372.847656 -225.515625 L 320.980469 -225.515625 L 371.347656 -137.5625 L 426.972656 -137.5625 L 436.746094 -118.769531 L 381.871094 -118.769531 L 439.75 -17.289062 L 474.332031 -17.289062 L 475.835938 -14.28125 C 478.089844 -9.773438 481.097656 -6.015625 483.351562 -3.757812 C 487.109375 -0.75 492.371094 0.75 499.890625 0.75 L 581.824219 0.75 C 590.847656 0.75 597.613281 -5.261719 599.113281 -14.28125 C 599.113281 -15.035156 599.113281 -15.785156 599.113281 -17.289062 L 564.535156 -17.289062 C 564.535156 -23.304688 563.785156 -28.566406 561.53125 -32.324219 L 510.414062 -118.769531 L 566.039062 -118.769531 L 555.515625 -137.5625 L 499.890625 -137.5625 L 448.019531 -225.515625 L 499.890625 -225.515625 L 481.097656 -257.835938 C 505.152344 -260.84375 525.445312 -268.363281 541.984375 -279.636719 L 470.570312 -279.636719 C 479.59375 -286.402344 487.863281 -294.671875 494.628906 -303.691406 Z M 230.023438 -393.144531 L 72.164062 -393.144531 L 72.164062 -412.691406 L 230.023438 -412.691406 Z M 299.933594 -469.820312 L 160.867188 -469.820312 L 160.867188 -479.59375 L 299.933594 -479.59375 Z M 339.773438 -65.398438 L 200.707031 -65.398438 L 200.707031 -75.921875 L 339.773438 -75.921875 Z M 339.773438 -65.398438 " />
      </g>
    </g>
  </g>
  <g fill="#ee7329" fill-opacity="1">
    <g transform="translate(80, 700)">
      <g>
        <path d="M 494.628906 -303.691406 C 505.902344 -320.230469 514.171875 -339.773438 519.433594 -363.078125 L 614.148438 -363.078125 C 615.652344 -368.339844 617.15625 -375.105469 617.90625 -381.117188 L 514.921875 -381.117188 C 517.929688 -397.65625 519.433594 -415.695312 519.433594 -435.242188 L 599.113281 -435.242188 C 599.113281 -435.992188 599.113281 -436.746094 599.113281 -437.496094 C 599.113281 -456.289062 597.613281 -473.578125 595.355469 -488.613281 L 566.039062 -488.613281 C 566.039062 -489.363281 566.039062 -489.363281 566.039062 -489.363281 L 532.964844 -489.363281 C 529.957031 -509.660156 525.445312 -526.949219 519.433594 -542.738281 L 578.066406 -542.738281 C 573.558594 -553.261719 568.292969 -563.03125 562.28125 -571.300781 C 555.515625 -581.824219 546.496094 -590.09375 535.972656 -596.859375 L 472.074219 -596.859375 C 450.277344 -611.894531 422.460938 -619.410156 387.132812 -619.410156 L 40.59375 -619.410156 C 34.578125 -619.410156 21.046875 -617.15625 19.542969 -596.859375 L 83.441406 -596.859375 C 83.441406 -595.355469 83.441406 -594.605469 83.441406 -593.101562 L 83.441406 -542.738281 L 24.054688 -542.738281 L 24.054688 -533.714844 C 24.054688 -510.414062 39.089844 -508.15625 45.855469 -508.15625 L 372.847656 -508.15625 C 392.394531 -508.15625 405.925781 -502.894531 413.441406 -491.621094 C 413.441406 -490.867188 414.195312 -490.117188 414.195312 -489.363281 L 447.269531 -489.363281 C 447.269531 -489.363281 447.269531 -489.363281 447.269531 -488.613281 L 476.585938 -488.613281 C 484.101562 -477.335938 487.863281 -460.046875 487.863281 -437.496094 C 487.863281 -436.746094 487.109375 -435.992188 487.109375 -435.242188 L 408.179688 -435.242188 C 408.179688 -411.9375 403.667969 -394.648438 396.152344 -383.375 C 395.402344 -382.621094 394.648438 -381.871094 393.898438 -381.117188 L 496.882812 -381.117188 C 488.613281 -372.097656 476.585938 -366.835938 458.542969 -366.835938 L 131.550781 -366.835938 C 128.542969 -366.835938 123.28125 -366.835938 118.019531 -363.078125 L 23.304688 -363.078125 C 18.792969 -359.320312 15.035156 -352.554688 15.035156 -341.277344 L 15.035156 -279.636719 L 86.445312 -279.636719 L 86.445312 -225.515625 L 34.578125 -225.515625 L 34.578125 -137.5625 L 90.207031 -137.5625 L 90.207031 -118.769531 L 34.578125 -118.769531 L 34.578125 -25.558594 C 34.578125 -22.550781 34.578125 -19.542969 35.332031 -17.289062 L 69.910156 -17.289062 C 72.917969 -1.503906 84.945312 0.75 90.957031 0.75 L 159.363281 0.75 C 165.375 0.75 176.652344 -1.503906 179.660156 -17.289062 L 145.082031 -17.289062 C 145.832031 -19.542969 145.832031 -22.550781 145.832031 -25.558594 L 145.832031 -118.769531 L 269.863281 -118.769531 L 269.863281 -137.5625 L 145.832031 -137.5625 L 145.832031 -225.515625 L 197.699219 -225.515625 L 197.699219 -255.582031 L 356.3125 -255.582031 L 372.847656 -225.515625 L 320.980469 -225.515625 L 371.347656 -137.5625 L 426.972656 -137.5625 L 436.746094 -118.769531 L 381.871094 -118.769531 L 439.75 -17.289062 L 474.332031 -17.289062 L 475.835938 -14.28125 C 478.089844 -9.773438 481.097656 -6.015625 483.351562 -3.757812 C 487.109375 -0.75 492.371094 0.75 499.890625 0.75 L 581.824219 0.75 C 590.847656 0.75 597.613281 -5.261719 599.113281 -14.28125 C 599.113281 -15.035156 599.113281 -15.785156 599.113281 -17.289062 L 564.535156 -17.289062 C 564.535156 -23.304688 563.785156 -28.566406 561.53125 -32.324219 L 510.414062 -118.769531 L 566.039062 -118.769531 L 555.515625 -137.5625 L 499.890625 -137.5625 L 448.019531 -225.515625 L 499.890625 -225.515625 L 481.097656 -257.835938 C 505.152344 -260.84375 525.445312 -268.363281 541.984375 -279.636719 L 470.570312 -279.636719 C 479.59375 -286.402344 487.863281 -294.671875 494.628906 -303.691406 Z M 230.023438 -393.144531 L 72.164062 -393.144531 L 72.164062 -412.691406 L 230.023438 -412.691406 Z M 299.933594 -469.820312 L 160.867188 -469.820312 L 160.867188 -479.59375 L 299.933594 -479.59375 Z M 339.773438 -65.398438 L 200.707031 -65.398438 L 200.707031 -75.921875 L 339.773438 -75.921875 Z M 339.773438 -65.398438 " />
      </g>
    </g>
  </g>
</svg>